# xmcd
#
# Track frame offsets:
#	150
#	17562
#	33997
#	53780
#	71072
#	86180
#	101337
#	116922
#	135482
#	158730
#	174350
#	191177
#	207170
#
# Disc length: 2939 seconds
# Revision: 3
# Processed by: cddbd v1.5.2PL0 Copyright (c) Steve Scherf et al.
# Submitted via: dBpowerAMP V12.0
#
DISCID=af0b790d
DTITLE=Various Artist - Where Your Road Leads
DYEAR=1998
DGENRE=Country
TTITLE0=Trisha Yearwood - There Goes My Baby
TTITLE1=Trisha Yearwood - Love Wouldn't Lie To Me
TTITLE2=Trisha Yearwood - I'll Still Love You More
TTITLE3=Trisha Yearwood - That Ain't The Way I Heard It
TTITLE4=Trisha Yearwood - Never Let You Go Again
TTITLE5=Trisha Yearwood - Heart Like A Sad Song
TTITLE6=Trisha Yearwood - Wouldn't Any Woman
TTITLE7=Trisha Yearwood - I Don't Want To Be The One
TTITLE8=Trisha Yearwood - Bring Me All Your Lovin'
TTITLE9=Trisha Yearwood and Garth Brooks - Where Your Road Leads
TTITLE10=Trisha Yearwood - I Have A Love
TTITLE11=Trisha Yearwood - One More Chance
TTITLE12=Trisha Yearwood - Powerful Thing
EXTD=
EXTT0=
EXTT1=
EXTT2=
EXTT3=
EXTT4=
EXTT5=
EXTT6=
EXTT7=
EXTT8=
EXTT9=
EXTT10=
EXTT11=
EXTT12=
PLAYORDER=
